<svg width="101" height="139" viewBox="0 0 101 139" fill="none" xmlns="http://www.w3.org/2000/svg">
<path d="M75.1117 34.7058C73.6062 33.0023 72.059 31.299 70.4287 29.6792L69.2168 28.5581L69.7985 28.0563C71.8304 26.3005 73.2749 23.9638 73.9371 21.3613C74.5992 18.7588 74.4471 16.0159 73.5014 13.5025C72.1334 10.6693 69.9744 8.29282 67.2851 6.66006C64.5958 5.0273 61.4913 4.20815 58.3465 4.30157L58.3735 12.6348C59.8559 12.6094 61.3183 12.9799 62.6097 13.7082C63.9012 14.4365 64.975 15.4961 65.7203 16.7777C66.434 18.4421 65.7316 20.2777 63.7796 22.2424C63.489 22.5767 63.1564 22.7861 62.8657 23.0787C50.3332 13.0775 36.6066 7.45529 29.9201 14.1853C29.2197 14.9059 28.645 15.7387 28.2197 16.6492L28.221 17.0658L27.4782 19.2766L9.28001 73.9191C8.59163 75.9782 8.40376 78.1717 8.73195 80.318C9.06014 82.4642 9.89495 84.5013 11.1672 86.2607C12.4395 88.02 14.1127 89.4509 16.0481 90.4348C17.9835 91.4188 20.1255 91.9274 22.2967 91.9187C23.7143 91.9003 25.1199 91.6566 26.461 91.1968L83.566 72.0536C84.2677 71.7897 84.8852 71.3415 85.3534 70.7561L86.226 70.0033C92.1649 63.984 88.2942 52.4548 80.258 41.2725C84.9992 38.4848 90.4646 37.1759 95.9542 37.5133L95.9272 29.18C88.5816 28.7997 81.3016 30.7323 75.1117 34.7058ZM24.0187 83.2881C23.074 83.6041 22.0599 83.6515 21.0898 83.4247C20.1197 83.1979 19.2317 82.7059 18.525 82.0038C17.8182 81.3016 17.3205 80.4168 17.0875 79.4482C16.8544 78.4796 16.8951 77.4652 17.2051 76.5184L22.8165 59.4168C26.8855 67.1158 33.1201 73.4545 40.7506 77.6505L24.0187 83.2881ZM53.1538 73.4854C46.8515 71.8381 41.0965 68.5544 36.4718 63.9669C31.8471 59.3793 28.5171 53.651 26.8191 47.3622L30.9453 34.8487L31.1965 35.2229C31.6578 36.1381 32.2442 37.0945 32.8307 38.051C33.4171 39.0074 33.5012 39.2572 33.9199 39.8808C34.3386 40.5044 35.3014 41.8763 36.0548 42.9156C36.8081 43.9548 36.8502 44.0797 37.3104 44.6615C37.7706 45.2434 39.1095 46.9474 40.0715 48.0693L41.2845 49.5237C42.7064 51.1441 44.2115 52.7225 45.8001 54.3424C47.3887 55.9623 48.6421 56.9999 49.9803 58.4956L51.359 59.6578L54.6175 62.2722L56.1629 63.4339C57.3323 64.2634 58.46 65.0931 59.6291 65.8394L60.9234 66.6685C62.4264 67.5803 63.9292 68.4504 65.39 69.1957L65.5983 69.195L53.1538 73.4854ZM80.2486 64.1059L79.9986 64.1067C77.1287 65.6994 65.1576 61.7798 51.6557 48.3234C50.2344 46.9113 48.8966 45.5407 47.6839 44.1696L46.4708 42.7152L44.2539 40.0557L43.0402 38.3929C42.4959 37.603 41.9102 36.8549 41.4077 36.1065L40.3187 34.3601L39.1041 32.4057C38.7689 31.8234 38.5171 31.2825 38.2237 30.7418C37.9303 30.2011 37.5952 29.6605 37.3433 29.078C37.1182 28.5905 36.9218 28.0903 36.7551 27.5799C36.545 27.0389 36.2933 26.4981 36.125 25.9986C35.9567 25.4991 35.9141 25.2076 35.7875 24.708C35.6609 24.2084 35.5762 23.792 35.4915 23.3756C35.4695 23.0149 35.4684 22.6532 35.488 22.2923C35.4468 21.9603 35.4457 21.6246 35.4848 21.2923L35.9389 19.9992C37.434 18.4943 45.2305 19.9691 55.6727 27.852C53.9096 28.6546 52.0235 29.1538 50.0942 29.3284L50.1211 37.6617C54.5462 37.3928 58.8361 36.0334 62.6084 33.7046L64.6146 35.6147C66.3702 37.3591 68.001 39.1455 69.5485 40.9321C67.1774 45.2528 66.3139 50.2405 67.0944 55.1068L75.4224 53.4548C75.1719 51.9098 75.1668 50.3348 75.4073 48.7882C76.6852 50.7124 77.8198 52.7281 78.8018 54.8189C81.153 60.3113 80.9963 63.3952 80.2486 64.1059Z" fill="#123288"/>
<path d="M2.91943 115.144H9.78662C11.146 115.144 12.1577 115.202 12.8218 115.319C13.4937 115.429 14.0913 115.663 14.6147 116.022C15.146 116.382 15.5874 116.862 15.939 117.464C16.2905 118.058 16.4663 118.726 16.4663 119.468C16.4663 120.272 16.2476 121.011 15.8101 121.683C15.3804 122.354 14.7944 122.858 14.0522 123.194C15.0991 123.499 15.9038 124.019 16.4663 124.753C17.0288 125.487 17.3101 126.351 17.3101 127.343C17.3101 128.124 17.1265 128.886 16.7593 129.628C16.3999 130.362 15.9038 130.952 15.271 131.397C14.646 131.835 13.8726 132.104 12.9507 132.206C12.3726 132.269 10.978 132.308 8.76709 132.323H2.91943V115.144ZM6.38818 118.003V121.976H8.66162C10.0132 121.976 10.853 121.956 11.1812 121.917C11.7749 121.847 12.2397 121.644 12.5757 121.308C12.9194 120.964 13.0913 120.515 13.0913 119.96C13.0913 119.429 12.9429 118.999 12.646 118.671C12.3569 118.335 11.9233 118.132 11.3452 118.062C11.0015 118.022 10.0132 118.003 8.38037 118.003H6.38818ZM6.38818 124.835V129.429H9.59912C10.8491 129.429 11.6421 129.394 11.978 129.323C12.4937 129.229 12.9116 129.003 13.2319 128.644C13.5601 128.276 13.7241 127.788 13.7241 127.179C13.7241 126.663 13.5991 126.226 13.3491 125.866C13.0991 125.507 12.7358 125.245 12.2593 125.081C11.7905 124.917 10.7671 124.835 9.18896 124.835H6.38818ZM20.228 118.19V115.144H23.521V118.19H20.228ZM20.228 132.323V119.878H23.521V132.323H20.228ZM30.0601 132.323H26.7671V119.878H29.8257V121.647C30.3491 120.812 30.8179 120.261 31.2319 119.995C31.6538 119.729 32.1304 119.597 32.6616 119.597C33.4116 119.597 34.1343 119.804 34.8296 120.218L33.8101 123.089C33.2554 122.729 32.7397 122.55 32.2632 122.55C31.8022 122.55 31.4116 122.679 31.0913 122.937C30.771 123.187 30.5171 123.644 30.3296 124.308C30.1499 124.972 30.0601 126.362 30.0601 128.479V132.323ZM41.9663 119.878V122.503H39.7163V127.519C39.7163 128.534 39.7358 129.128 39.7749 129.3C39.8218 129.464 39.9194 129.601 40.0679 129.71C40.2241 129.819 40.4116 129.874 40.6304 129.874C40.9351 129.874 41.3765 129.769 41.9546 129.558L42.2358 132.112C41.4702 132.44 40.603 132.604 39.6343 132.604C39.0405 132.604 38.5054 132.507 38.0288 132.312C37.5522 132.108 37.2007 131.851 36.9741 131.538C36.7554 131.218 36.603 130.788 36.5171 130.249C36.4468 129.866 36.4116 129.093 36.4116 127.929V122.503H34.8999V119.878H36.4116V117.405L39.7163 115.483V119.878H41.9663ZM47.5327 115.144V121.46C48.5952 120.218 49.8647 119.597 51.3413 119.597C52.0991 119.597 52.7827 119.737 53.3921 120.019C54.0015 120.3 54.4585 120.659 54.7632 121.097C55.0757 121.534 55.2866 122.019 55.396 122.55C55.5132 123.081 55.5718 123.905 55.5718 125.022V132.323H52.2788V125.749C52.2788 124.444 52.2163 123.616 52.0913 123.265C51.9663 122.913 51.7437 122.636 51.4233 122.433C51.1108 122.222 50.7163 122.116 50.2397 122.116C49.6929 122.116 49.2046 122.249 48.7749 122.515C48.3452 122.78 48.0288 123.183 47.8257 123.722C47.6304 124.253 47.5327 125.042 47.5327 126.089V132.323H44.2397V115.144H47.5327ZM70.3374 132.323H67.2788V130.495C66.771 131.206 66.1694 131.737 65.4741 132.089C64.7866 132.433 64.0913 132.604 63.3882 132.604C61.9585 132.604 60.7319 132.03 59.7085 130.882C58.6929 129.726 58.1851 128.116 58.1851 126.054C58.1851 123.944 58.6812 122.343 59.6733 121.249C60.6655 120.147 61.9194 119.597 63.4351 119.597C64.8257 119.597 66.0288 120.175 67.0444 121.331V115.144H70.3374V132.323ZM61.5483 125.831C61.5483 127.159 61.7319 128.12 62.0991 128.714C62.6304 129.573 63.3726 130.003 64.3257 130.003C65.0835 130.003 65.728 129.683 66.2593 129.042C66.7905 128.394 67.0562 127.429 67.0562 126.147C67.0562 124.718 66.7983 123.69 66.2827 123.065C65.7671 122.433 65.1069 122.116 64.3022 122.116C63.521 122.116 62.8647 122.429 62.3335 123.054C61.8101 123.671 61.5483 124.597 61.5483 125.831ZM76.0562 123.675L73.0679 123.136C73.4038 121.933 73.9819 121.042 74.8022 120.464C75.6226 119.886 76.8413 119.597 78.4585 119.597C79.9272 119.597 81.021 119.772 81.7397 120.124C82.4585 120.468 82.9624 120.909 83.2515 121.448C83.5483 121.979 83.6968 122.96 83.6968 124.39L83.6616 128.233C83.6616 129.327 83.7124 130.136 83.814 130.659C83.9233 131.175 84.1226 131.729 84.4116 132.323H81.1538C81.0679 132.104 80.9624 131.78 80.8374 131.351C80.7827 131.155 80.7437 131.026 80.7202 130.964C80.1577 131.511 79.5562 131.921 78.9155 132.194C78.2749 132.468 77.5913 132.604 76.8647 132.604C75.5835 132.604 74.5718 132.257 73.8296 131.562C73.0952 130.866 72.728 129.987 72.728 128.925C72.728 128.222 72.896 127.597 73.2319 127.05C73.5679 126.495 74.0366 126.073 74.6382 125.784C75.2476 125.487 76.1226 125.229 77.2632 125.011C78.8022 124.722 79.8687 124.452 80.4624 124.202V123.874C80.4624 123.241 80.3062 122.792 79.9937 122.526C79.6812 122.253 79.0913 122.116 78.2241 122.116C77.6382 122.116 77.1812 122.233 76.853 122.468C76.5249 122.694 76.2593 123.097 76.0562 123.675ZM80.4624 126.347C80.0405 126.487 79.3726 126.655 78.4585 126.851C77.5444 127.046 76.9468 127.237 76.6655 127.425C76.2358 127.729 76.021 128.116 76.021 128.585C76.021 129.046 76.1929 129.444 76.5366 129.78C76.8804 130.116 77.3179 130.284 77.8491 130.284C78.4429 130.284 79.0093 130.089 79.5483 129.698C79.9468 129.401 80.2085 129.038 80.3335 128.608C80.4194 128.327 80.4624 127.792 80.4624 127.003V126.347ZM85.396 119.878H88.8999L91.8765 128.714L94.7827 119.878H98.1929L93.7983 131.854L93.0132 134.022C92.7241 134.749 92.4468 135.304 92.1812 135.687C91.9233 136.069 91.6226 136.378 91.2788 136.612C90.9429 136.854 90.5249 137.042 90.0249 137.175C89.5327 137.308 88.9741 137.374 88.3491 137.374C87.7163 137.374 87.0952 137.308 86.4858 137.175L86.1929 134.597C86.7085 134.698 87.1733 134.749 87.5874 134.749C88.353 134.749 88.9194 134.522 89.2866 134.069C89.6538 133.624 89.9351 133.054 90.1304 132.358L85.396 119.878Z" fill="#123288"/>
</svg>
