<svg width="50" height="50" viewBox="0 0 50 50" fill="none" xmlns="http://www.w3.org/2000/svg">
<path d="M37.2012 17.4023C36.4635 16.5676 35.7054 15.733 34.9066 14.9393L34.3127 14.39L34.5977 14.1441C35.5934 13.2838 36.3012 12.1388 36.6257 10.8636C36.9501 9.58834 36.8756 8.24429 36.4122 7.01276C35.7419 5.62449 34.684 4.45999 33.3662 3.65994C32.0484 2.85988 30.5272 2.4585 28.9863 2.50427L28.9995 6.58759C29.7259 6.57512 30.4424 6.75668 31.0752 7.11352C31.7081 7.47037 32.2342 7.98959 32.5994 8.61761C32.9491 9.43315 32.605 10.3326 31.6485 11.2953C31.5061 11.4591 31.3431 11.5617 31.2007 11.7051C25.0598 6.80451 18.3337 4.0496 15.0573 7.34731C14.7141 7.7004 14.4325 8.10848 14.2241 8.5546L14.2248 8.75876L13.8608 9.84203L4.94367 36.6169C4.60637 37.6259 4.51431 38.7007 4.67512 39.7523C4.83594 40.804 5.245 41.8022 5.86842 42.6643C6.49184 43.5263 7.31168 44.2275 8.26004 44.7096C9.2084 45.1917 10.258 45.441 11.3218 45.4367C12.0165 45.4277 12.7052 45.3083 13.3624 45.083L41.3438 35.7028C41.6876 35.5735 41.9902 35.3539 42.2197 35.067L42.6472 34.6981C45.5573 31.7487 43.6607 26.0994 39.7229 20.62C42.0461 19.2541 44.7241 18.6127 47.4141 18.778L47.4008 14.6947C43.8015 14.5084 40.2343 15.4553 37.2012 17.4023ZM12.1657 41.2077C11.7027 41.3626 11.2058 41.3857 10.7305 41.2746C10.2551 41.1635 9.82001 40.9224 9.4737 40.5784C9.1274 40.2343 8.88353 39.8008 8.76934 39.3261C8.65514 38.8515 8.67509 38.3545 8.82698 37.8906L11.5765 29.5108C13.5704 33.2832 16.6253 36.3892 20.3643 38.4453L12.1657 41.2077ZM26.4418 36.4044C23.3537 35.5972 20.5337 33.9882 18.2677 31.7403C16.0016 29.4924 14.3699 26.6855 13.5378 23.604L15.5597 17.4724L15.6828 17.6558C15.9088 18.1042 16.1961 18.5728 16.4835 19.0415C16.7709 19.5102 16.8121 19.6325 17.0172 19.9381C17.2224 20.2437 17.6942 20.9159 18.0633 21.4251C18.4325 21.9344 18.4531 21.9956 18.6786 22.2807C18.9041 22.5658 19.5601 23.4007 20.0315 23.9505L20.6259 24.6631C21.3226 25.4571 22.0601 26.2306 22.8385 27.0243C23.6169 27.818 24.2311 28.3265 24.8868 29.0593L25.5624 29.6288L27.1591 30.9099L27.9163 31.4791C28.4893 31.8856 29.0419 32.2922 29.6147 32.6578L30.249 33.0641C30.9854 33.5109 31.7218 33.9372 32.4376 34.3024L32.5397 34.3021L26.4418 36.4044ZM39.7183 31.8084L39.5958 31.8088C38.1896 32.5892 32.3237 30.6686 25.7078 24.075C25.0113 23.3831 24.3558 22.7115 23.7616 22.0396L23.1672 21.327L22.0809 20.0238L21.4862 19.2091C21.2195 18.822 20.9325 18.4554 20.6863 18.0887L20.1527 17.2329L19.5575 16.2753C19.3932 15.99 19.2699 15.725 19.1261 15.46C18.9823 15.1951 18.8181 14.9302 18.6947 14.6447C18.5844 14.4059 18.4882 14.1608 18.4065 13.9107C18.3035 13.6456 18.1802 13.3806 18.0977 13.1358C18.0153 12.8911 17.9944 12.7482 17.9323 12.5034C17.8703 12.2586 17.8288 12.0546 17.7873 11.8506C17.7766 11.6738 17.776 11.4966 17.7856 11.3197C17.7654 11.1571 17.7649 10.9926 17.784 10.8297L18.0065 10.1961C18.7392 9.45873 22.5594 10.1814 27.6761 14.044C26.8122 14.4373 25.888 14.6819 24.9426 14.7674L24.9558 18.8507C27.1241 18.719 29.2262 18.0529 31.0746 16.9118L32.0576 17.8477C32.9179 18.7025 33.717 19.5778 34.4752 20.4533C33.3134 22.5704 32.8903 25.0144 33.2727 27.3989L37.3535 26.5894C37.2307 25.8323 37.2282 25.0606 37.3461 24.3027C37.9722 25.2456 38.5282 26.2333 39.0094 27.2578C40.1614 29.9491 40.0847 31.4602 39.7183 31.8084Z" fill="#123288"/>
</svg>
