<svg width="101" height="139" viewBox="0 0 101 139" fill="none" xmlns="http://www.w3.org/2000/svg">
<g clip-path="url(#clip0_443_785)">
<g clip-path="url(#clip1_443_785)">
<path d="M100.003 6.24976L100.003 93.7498L0.00329589 93.7498L0.0032959 6.24976L18.7533 6.24976L18.7533 -0.000244139L25.0033 -0.000244139L25.0033 6.24976L75.0033 6.24976L75.0033 -0.000244135L81.2533 -0.000244134L81.2533 6.24976L100.003 6.24976ZM6.2533 12.4998L6.2533 24.9998L93.7533 24.9998L93.7533 12.4998L81.2533 12.4998L81.2533 18.7498L75.0033 18.7498L75.0033 12.4998L25.0033 12.4998L25.0033 18.7498L18.7533 18.7498L18.7533 12.4998L6.2533 12.4998ZM93.7533 87.4998L93.7533 31.2498L6.2533 31.2498L6.2533 87.4998L93.7533 87.4998ZM68.7533 43.7498L68.7533 74.9998L62.5033 74.9998L62.5033 51.2693C61.6244 51.725 60.6153 52.1482 59.476 52.5388C58.3366 52.9294 57.2624 53.1248 56.2533 53.1248L56.2533 46.8748C56.6439 46.8748 57.1485 46.7771 57.767 46.5818C58.3855 46.3865 59.0202 46.1423 59.6713 45.8494C60.3223 45.5564 60.9082 45.2146 61.4291 44.824C61.9499 44.4334 62.308 44.0916 62.5033 43.7986L62.5033 43.7498L68.7533 43.7498ZM50.0033 53.1248C50.0033 54.3943 49.8243 55.5336 49.4662 56.5427C49.1081 57.5518 48.6036 58.4959 47.9525 59.3748C47.3015 60.2537 46.5853 61.0837 45.8041 61.865C45.0228 62.6462 44.1927 63.3949 43.3138 64.1111C42.4349 64.8272 41.6049 65.5759 40.8236 66.3572C40.0424 67.1384 39.2774 67.936 38.5287 68.7498L50.0033 68.7498L50.0033 74.9998L31.2533 74.9998L31.2533 73.242C31.2533 72.6235 31.237 72.005 31.2045 71.3865C31.1719 70.768 31.237 70.1495 31.3998 69.531C31.5625 68.9125 31.7253 68.3266 31.8881 67.7732C32.2461 66.8943 32.7832 66.0317 33.4994 65.1853C34.2155 64.339 35.0293 63.4763 35.9408 62.5974C36.8523 61.7185 37.7474 60.8884 38.6263 60.1072C39.5052 59.3259 40.3353 58.5284 41.1166 57.7146C41.8978 56.9008 42.5326 56.1358 43.0209 55.4197C43.5092 54.7035 43.7533 53.9386 43.7533 53.1248C43.7533 52.2459 43.444 51.5134 42.8256 50.9275C42.2071 50.3416 41.4747 50.0323 40.6283 49.9998C39.8796 49.9998 39.2286 50.2276 38.6752 50.6834C38.1218 51.1391 37.7474 51.7413 37.5521 52.49L31.4486 51.2205C31.6439 50.1462 32.0183 49.1534 32.5717 48.2419C33.125 47.3305 33.8412 46.5492 34.7201 45.8982C35.599 45.2472 36.5267 44.7263 37.5033 44.3357C38.4799 43.9451 39.5215 43.7498 40.6283 43.7498C41.9304 43.7498 43.1511 43.9939 44.2904 44.4822C45.4297 44.9705 46.4226 45.6378 47.2689 46.4841C48.1153 47.3305 48.7826 48.3233 49.2709 49.4627C49.7592 50.602 50.0033 51.8227 50.0033 53.1248Z" fill="#00338D"/>
</g>
</g>
<path d="M18.9077 132.323V115.144H31.646V118.05H22.3765V121.858H31.0015V124.753H22.3765V129.429H31.9741V132.323H18.9077ZM38.314 132.323L33.2983 119.878H36.7554L39.0991 126.229L39.7788 128.351C39.9585 127.812 40.0718 127.456 40.1187 127.284C40.228 126.933 40.3452 126.581 40.4702 126.229L42.8374 119.878H46.2241L41.2788 132.323H38.314ZM55.4585 128.362L58.7397 128.913C58.3179 130.116 57.6499 131.034 56.7358 131.667C55.8296 132.292 54.6929 132.604 53.3257 132.604C51.1616 132.604 49.5601 131.897 48.521 130.483C47.7007 129.351 47.2905 127.921 47.2905 126.194C47.2905 124.132 47.8296 122.519 48.9077 121.354C49.9858 120.183 51.3491 119.597 52.9976 119.597C54.8491 119.597 56.3101 120.21 57.3804 121.437C58.4507 122.655 58.9624 124.526 58.9155 127.05H50.6655C50.689 128.026 50.9546 128.788 51.4624 129.335C51.9702 129.874 52.603 130.144 53.3608 130.144C53.8765 130.144 54.3101 130.003 54.6616 129.722C55.0132 129.44 55.2788 128.987 55.4585 128.362ZM55.646 125.034C55.6226 124.081 55.3765 123.358 54.9077 122.866C54.439 122.366 53.8687 122.116 53.1968 122.116C52.478 122.116 51.8843 122.378 51.4155 122.901C50.9468 123.425 50.7163 124.136 50.7241 125.034H55.646ZM72.9312 132.323H69.6382V125.972C69.6382 124.628 69.5679 123.761 69.4272 123.37C69.2866 122.972 69.0562 122.663 68.7358 122.444C68.4233 122.226 68.0444 122.116 67.5991 122.116C67.0288 122.116 66.5171 122.272 66.064 122.585C65.6108 122.897 65.2983 123.312 65.1265 123.827C64.9624 124.343 64.8804 125.296 64.8804 126.687V132.323H61.5874V119.878H64.646V121.706C65.7319 120.3 67.0991 119.597 68.7476 119.597C69.4741 119.597 70.1382 119.729 70.7397 119.995C71.3413 120.253 71.7944 120.585 72.0991 120.991C72.4116 121.397 72.6265 121.858 72.7437 122.374C72.8687 122.89 72.9312 123.628 72.9312 124.589V132.323ZM81.9897 119.878V122.503H79.7397V127.519C79.7397 128.534 79.7593 129.128 79.7983 129.3C79.8452 129.464 79.9429 129.601 80.0913 129.71C80.2476 129.819 80.4351 129.874 80.6538 129.874C80.9585 129.874 81.3999 129.769 81.978 129.558L82.2593 132.112C81.4937 132.44 80.6265 132.604 79.6577 132.604C79.064 132.604 78.5288 132.507 78.0522 132.312C77.5757 132.108 77.2241 131.851 76.9976 131.538C76.7788 131.218 76.6265 130.788 76.5405 130.249C76.4702 129.866 76.4351 129.093 76.4351 127.929V122.503H74.9233V119.878H76.4351V117.405L79.7397 115.483V119.878H81.9897Z" fill="#123288"/>
<defs>
<clipPath id="clip0_443_785">
<rect width="100" height="100" fill="white" transform="translate(0 0.32373) rotate(-0.185487)"/>
</clipPath>
<clipPath id="clip1_443_785">
<rect width="100" height="100" fill="white"/>
</clipPath>
</defs>
</svg>
