<svg width="176" height="138" viewBox="0 0 176 138" fill="none" xmlns="http://www.w3.org/2000/svg">
<path d="M92.1546 79.1682C92.1546 82.0849 92.6963 84.8767 93.6129 87.5018H58.8212C56.6111 87.5018 54.4915 86.6238 52.9287 85.0609C51.3659 83.4981 50.4879 81.3784 50.4879 79.1682V20.8333C50.4879 16.2499 54.2379 12.4998 58.8212 12.4998H117.155C119.365 12.4998 121.484 13.3778 123.047 14.9406C124.61 16.5034 125.488 18.6231 125.488 20.8333V55.6259C122.863 54.7092 120.071 54.1675 117.155 54.1675V20.8333H58.8212V79.1682H92.1546ZM96.1546 51.2091L84.6963 65.9595L76.5296 56.1259L65.0713 70.8346H93.6129C95.2796 66.1679 98.2796 62.1261 102.155 59.2093L96.1546 51.2091ZM121.321 75.0014V62.5011H112.988V75.0014H100.488V83.335H112.988V95.8353H121.321V83.335H133.821V75.0014H121.321Z" fill="#00338D"/>
<path d="M1.64062 132.003V114.823H5.10938V132.003H1.64062ZM8.15625 119.557H11.1914V121.257C12.2773 119.936 13.5703 119.276 15.0703 119.276C15.8672 119.276 16.5586 119.44 17.1445 119.768C17.7305 120.096 18.2109 120.593 18.5859 121.257C19.1328 120.593 19.7227 120.096 20.3555 119.768C20.9883 119.44 21.6641 119.276 22.3828 119.276C23.2969 119.276 24.0703 119.464 24.7031 119.839C25.3359 120.206 25.8086 120.749 26.1211 121.468C26.3477 121.999 26.4609 122.858 26.4609 124.046V132.003H23.168V124.889C23.168 123.655 23.0547 122.858 22.8281 122.499C22.5234 122.03 22.0547 121.796 21.4219 121.796C20.9609 121.796 20.5273 121.936 20.1211 122.218C19.7148 122.499 19.4219 122.913 19.2422 123.46C19.0625 123.999 18.9727 124.854 18.9727 126.026V132.003H15.6797V125.182C15.6797 123.971 15.6211 123.19 15.5039 122.839C15.3867 122.487 15.2031 122.225 14.9531 122.053C14.7109 121.882 14.3789 121.796 13.957 121.796C13.4492 121.796 12.9922 121.932 12.5859 122.206C12.1797 122.479 11.8867 122.874 11.707 123.389C11.5352 123.905 11.4492 124.76 11.4492 125.956V132.003H8.15625V119.557ZM32.2148 123.354L29.2266 122.815C29.5625 121.612 30.1406 120.721 30.9609 120.143C31.7812 119.565 33 119.276 34.6172 119.276C36.0859 119.276 37.1797 119.452 37.8984 119.803C38.6172 120.147 39.1211 120.589 39.4102 121.128C39.707 121.659 39.8555 122.639 39.8555 124.069L39.8203 127.913C39.8203 129.007 39.8711 129.815 39.9727 130.339C40.082 130.854 40.2812 131.409 40.5703 132.003H37.3125C37.2266 131.784 37.1211 131.46 36.9961 131.03C36.9414 130.835 36.9023 130.706 36.8789 130.643C36.3164 131.19 35.7148 131.6 35.0742 131.874C34.4336 132.147 33.75 132.284 33.0234 132.284C31.7422 132.284 30.7305 131.936 29.9883 131.241C29.2539 130.546 28.8867 129.667 28.8867 128.604C28.8867 127.901 29.0547 127.276 29.3906 126.729C29.7266 126.175 30.1953 125.753 30.7969 125.464C31.4062 125.167 32.2812 124.909 33.4219 124.69C34.9609 124.401 36.0273 124.132 36.6211 123.882V123.553C36.6211 122.921 36.4648 122.471 36.1523 122.206C35.8398 121.932 35.25 121.796 34.3828 121.796C33.7969 121.796 33.3398 121.913 33.0117 122.147C32.6836 122.374 32.418 122.776 32.2148 123.354ZM36.6211 126.026C36.1992 126.167 35.5312 126.335 34.6172 126.53C33.7031 126.725 33.1055 126.917 32.8242 127.104C32.3945 127.409 32.1797 127.796 32.1797 128.264C32.1797 128.725 32.3516 129.124 32.6953 129.46C33.0391 129.796 33.4766 129.964 34.0078 129.964C34.6016 129.964 35.168 129.768 35.707 129.378C36.1055 129.081 36.3672 128.718 36.4922 128.288C36.5781 128.007 36.6211 127.471 36.6211 126.682V126.026ZM42.8086 132.823L46.5703 133.28C46.6328 133.718 46.7773 134.018 47.0039 134.182C47.3164 134.417 47.8086 134.534 48.4805 134.534C49.3398 134.534 49.9844 134.405 50.4141 134.147C50.7031 133.975 50.9219 133.698 51.0703 133.315C51.1719 133.042 51.2227 132.538 51.2227 131.803V129.987C50.2383 131.331 48.9961 132.003 47.4961 132.003C45.8242 132.003 44.5 131.296 43.5234 129.882C42.7578 128.764 42.375 127.374 42.375 125.71C42.375 123.624 42.875 122.03 43.875 120.928C44.8828 119.827 46.1328 119.276 47.625 119.276C49.1641 119.276 50.4336 119.952 51.4336 121.303V119.557H54.5156V130.725C54.5156 132.194 54.3945 133.292 54.1523 134.018C53.9102 134.745 53.5703 135.315 53.1328 135.729C52.6953 136.143 52.1094 136.468 51.375 136.702C50.6484 136.936 49.7266 137.053 48.6094 137.053C46.5 137.053 45.0039 136.69 44.1211 135.964C43.2383 135.245 42.7969 134.331 42.7969 133.221C42.7969 133.112 42.8008 132.979 42.8086 132.823ZM45.75 125.522C45.75 126.843 46.0039 127.811 46.5117 128.428C47.0273 129.038 47.6602 129.343 48.4102 129.343C49.2148 129.343 49.8945 129.03 50.4492 128.405C51.0039 127.772 51.2812 126.839 51.2812 125.604C51.2812 124.315 51.0156 123.358 50.4844 122.733C49.9531 122.108 49.2812 121.796 48.4688 121.796C47.6797 121.796 47.0273 122.104 46.5117 122.721C46.0039 123.331 45.75 124.264 45.75 125.522ZM64.9922 128.042L68.2734 128.593C67.8516 129.796 67.1836 130.714 66.2695 131.346C65.3633 131.971 64.2266 132.284 62.8594 132.284C60.6953 132.284 59.0938 131.577 58.0547 130.163C57.2344 129.03 56.8242 127.6 56.8242 125.874C56.8242 123.811 57.3633 122.198 58.4414 121.034C59.5195 119.862 60.8828 119.276 62.5312 119.276C64.3828 119.276 65.8438 119.889 66.9141 121.116C67.9844 122.335 68.4961 124.206 68.4492 126.729H60.1992C60.2227 127.706 60.4883 128.468 60.9961 129.014C61.5039 129.553 62.1367 129.823 62.8945 129.823C63.4102 129.823 63.8438 129.682 64.1953 129.401C64.5469 129.12 64.8125 128.667 64.9922 128.042ZM65.1797 124.714C65.1562 123.76 64.9102 123.038 64.4414 122.546C63.9727 122.046 63.4023 121.796 62.7305 121.796C62.0117 121.796 61.418 122.057 60.9492 122.581C60.4805 123.104 60.25 123.815 60.2578 124.714H65.1797ZM77.1445 123.518C77.1445 121.768 77.4062 120.3 77.9297 119.112C78.3203 118.237 78.8516 117.452 79.5234 116.757C80.2031 116.061 80.9453 115.546 81.75 115.21C82.8203 114.757 84.0547 114.53 85.4531 114.53C87.9844 114.53 90.0078 115.315 91.5234 116.885C93.0469 118.456 93.8086 120.639 93.8086 123.436C93.8086 126.21 93.0547 128.382 91.5469 129.952C90.0391 131.514 88.0234 132.296 85.5 132.296C82.9453 132.296 80.9141 131.518 79.4062 129.964C77.8984 128.401 77.1445 126.253 77.1445 123.518ZM80.7188 123.401C80.7188 125.346 81.168 126.823 82.0664 127.831C82.9648 128.831 84.1055 129.331 85.4883 129.331C86.8711 129.331 88.0039 128.835 88.8867 127.843C89.7773 126.843 90.2227 125.346 90.2227 123.354C90.2227 121.385 89.7891 119.917 88.9219 118.948C88.0625 117.979 86.918 117.495 85.4883 117.495C84.0586 117.495 82.9062 117.987 82.0312 118.971C81.1562 119.948 80.7188 121.425 80.7188 123.401ZM99.6562 132.003H96.3633V119.557H99.4219V121.327C99.9453 120.491 100.414 119.94 100.828 119.675C101.25 119.409 101.727 119.276 102.258 119.276C103.008 119.276 103.73 119.483 104.426 119.897L103.406 122.768C102.852 122.409 102.336 122.229 101.859 122.229C101.398 122.229 101.008 122.358 100.688 122.616C100.367 122.866 100.113 123.323 99.9258 123.987C99.7461 124.651 99.6562 126.042 99.6562 128.159V132.003ZM116.941 132.003L110.801 114.823H114.562L118.91 127.538L123.117 114.823H126.797L120.645 132.003H116.941ZM128.098 117.87V114.823H131.391V117.87H128.098ZM128.098 132.003V119.557H131.391V132.003H128.098ZM146.191 132.003H143.133V130.175C142.625 130.885 142.023 131.417 141.328 131.768C140.641 132.112 139.945 132.284 139.242 132.284C137.812 132.284 136.586 131.71 135.562 130.561C134.547 129.405 134.039 127.796 134.039 125.733C134.039 123.624 134.535 122.022 135.527 120.928C136.52 119.827 137.773 119.276 139.289 119.276C140.68 119.276 141.883 119.854 142.898 121.01V114.823H146.191V132.003ZM137.402 125.51C137.402 126.839 137.586 127.8 137.953 128.393C138.484 129.253 139.227 129.682 140.18 129.682C140.938 129.682 141.582 129.362 142.113 128.721C142.645 128.073 142.91 127.108 142.91 125.827C142.91 124.397 142.652 123.37 142.137 122.745C141.621 122.112 140.961 121.796 140.156 121.796C139.375 121.796 138.719 122.108 138.188 122.733C137.664 123.35 137.402 124.276 137.402 125.51ZM156.656 128.042L159.938 128.593C159.516 129.796 158.848 130.714 157.934 131.346C157.027 131.971 155.891 132.284 154.523 132.284C152.359 132.284 150.758 131.577 149.719 130.163C148.898 129.03 148.488 127.6 148.488 125.874C148.488 123.811 149.027 122.198 150.105 121.034C151.184 119.862 152.547 119.276 154.195 119.276C156.047 119.276 157.508 119.889 158.578 121.116C159.648 122.335 160.16 124.206 160.113 126.729H151.863C151.887 127.706 152.152 128.468 152.66 129.014C153.168 129.553 153.801 129.823 154.559 129.823C155.074 129.823 155.508 129.682 155.859 129.401C156.211 129.12 156.477 128.667 156.656 128.042ZM156.844 124.714C156.82 123.76 156.574 123.038 156.105 122.546C155.637 122.046 155.066 121.796 154.395 121.796C153.676 121.796 153.082 122.057 152.613 122.581C152.145 123.104 151.914 123.815 151.922 124.714H156.844ZM162.047 125.604C162.047 124.51 162.316 123.452 162.855 122.428C163.395 121.405 164.156 120.624 165.141 120.085C166.133 119.546 167.238 119.276 168.457 119.276C170.34 119.276 171.883 119.889 173.086 121.116C174.289 122.335 174.891 123.878 174.891 125.745C174.891 127.628 174.281 129.19 173.062 130.432C171.852 131.667 170.324 132.284 168.48 132.284C167.34 132.284 166.25 132.026 165.211 131.51C164.18 130.995 163.395 130.241 162.855 129.249C162.316 128.249 162.047 127.034 162.047 125.604ZM165.422 125.78C165.422 127.014 165.715 127.96 166.301 128.616C166.887 129.272 167.609 129.6 168.469 129.6C169.328 129.6 170.047 129.272 170.625 128.616C171.211 127.96 171.504 127.007 171.504 125.757C171.504 124.538 171.211 123.6 170.625 122.944C170.047 122.288 169.328 121.96 168.469 121.96C167.609 121.96 166.887 122.288 166.301 122.944C165.715 123.6 165.422 124.546 165.422 125.78Z" fill="#123288"/>
</svg>
