<svg width="49" height="49" viewBox="0 0 49 49" fill="none" xmlns="http://www.w3.org/2000/svg">
<path d="M26.5417 38.7917C26.5417 40.2208 26.8071 41.5888 27.2563 42.875H10.2083C9.12537 42.875 8.08675 42.4448 7.32098 41.679C6.55521 40.9132 6.125 39.8746 6.125 38.7917V10.2083C6.125 7.9625 7.9625 6.125 10.2083 6.125H38.7917C39.8746 6.125 40.9132 6.55521 41.679 7.32098C42.4448 8.08675 42.875 9.12537 42.875 10.2083V27.2563C41.5888 26.8071 40.2208 26.5417 38.7917 26.5417V10.2083H10.2083V38.7917H26.5417ZM28.5017 25.0921L22.8871 32.3196L18.8854 27.5013L13.2708 34.7083H27.2563C28.0729 32.4217 29.5429 30.4413 31.4417 29.0121L28.5017 25.0921ZM40.8333 36.75V30.625H36.75V36.75H30.625V40.8333H36.75V46.9583H40.8333V40.8333H46.9583V36.75H40.8333Z" fill="#00338D"/>
</svg>
